<svg id="Group_214" data-name="Group 214" xmlns="http://www.w3.org/2000/svg" width="99" height="93.937" viewBox="0 0 99 93.937">
  <path id="Path_2" data-name="Path 2" d="M211.39,432.547c-1.867-1.169-5.445-.3-8.245.254s-4.3,1.729-5.186,1.119,2.7-3.2,4.771-3.915,3.682-1.627,4.719-.711,1.5,1.22,1.918-.1.985-3.865-.311-4.729c-1.194-.8-3.993-.2-6.327,1.068s-5.237,3.712-6.379,5.95a10.316,10.316,0,0,0-1.18,3.952c-.968.58-7.1,4.113-10.9,2.857-2.9-.959-4.036-4.559-1.859-9.352,2.7-5.94,7.982-10.24,11.352-12.42,4.2-2.717,7.676-4.391,5.756-1.568s-8.112,9.342-12.249,10.048c-.753.128-.84,1.235-.9,3s-.493,2.938,1.906,1.7,6.676-5.246,9.435-8.481,5.333-7.867,5.333-10.807-4.438-.765-6.477.588-9.056,6.352-13.374,12.468-3.839,13.115-1.8,15.056,5.458,2,8.577,1.059a21.422,21.422,0,0,0,5.485-2.723,1.4,1.4,0,0,0,.894.671c1.971.509,4.512-.407,7.053-1.932s5.438-2.085,5.393-.61a82.9,82.9,0,0,1-3.837,19.527c-2.956,8.849-5.652,14.646-8.3,16.832s-3.163,2.238-4.667,1.78-1.919-1.17-2.593-.457-.726,2.034-.726,3.407-.259,2.848,2.23,2.187,3.163-2.39,4.356-3.509,4.356-2.9,7.467-9.712a192.679,192.679,0,0,0,7.312-20.087c1.245-3.966,3.216-11.238,1.348-12.408" transform="translate(-179.885 -384.489)" fill="#fff"/>
  <path id="Path_3" data-name="Path 3" d="M476.829,543.551c-1.193-.763-1.918-.051-2.023,2.034s-.57,2.136-3.371,4.424-6.067,4.17-6.741,4.068.052-4.373.467-5.7,1.245-1.474,1.245-2.8-2.134-3.863-2.956-3.712-1.193,2.238-1.66,4.577.571,9.713.778,11.594,1.971,1.068,4.149-.61,6.275-7.119,6.793-7.17-.207,3.509-.881,7.17a114.7,114.7,0,0,0-1.037,12.916c-.259,4.577-2.334,13.476-2.334,14.8s1.711,2.492,3.008,3.356,1.815-.509,1.815-1.424.1-7.221.207-12,.207-11.441.518-15.154,3.267-9.763,4.1-11.95-.882-3.661-2.074-4.424" transform="translate(-428.471 -501.747)" fill="#fff"/>
  <path id="Path_4" data-name="Path 4" d="M641.825,498.334c.311-1.882-1.037-2.186-1.037-2.186a8.3,8.3,0,0,1,0,2.39c-.207,1.017-2.282,1.831-4.978,1.882s-8.09-.457-8.608-.865,1.607-1.831,3.682-3.814,2.8-3.611,2.9-7.272-1.5-4.678-2.748-5.237-6.067,3.153-8.608,5.594a17.512,17.512,0,0,0-3.785,5.848c-.571.1-3.216-3.814-3.838-3.712s-.415,9.458-.518,12.458.363,21.358.363,24.409a21.153,21.153,0,0,1-.518,5.848c-.363,1.271-.311,1.983.259,2.491a24.493,24.493,0,0,0,2.541,1.78c.727.458,1.453.509,1.453-.305a31.069,31.069,0,0,0-.623-5.034c-.363-1.525-1.192-2.644-1.192-4.577V509.775a6.716,6.716,0,0,1,1.452-4.78c1.089-1.627,1.556-5.136,3.423-9.255a16.008,16.008,0,0,1,8.193-7.831c2.748-1.17,2.489-.356,2.489,3.254s-5.6,6.306-7.934,7.678-3.63,3.458-3.007,4.119,7.831-.661,13.327-1.424,7-1.322,7.312-3.2" transform="translate(-562.767 -449.97)" fill="#fff"/>
  <path id="Path_5" data-name="Path 5" d="M751.518,230.186c-.571-.457-10.787.407-10.787.407s3.89-6.661,4.668-9.408,1.348-9.815.519-12.154-2.386-7.475-8.349-7.679-5.653,8.086-5.5,12.459,3.941,17.086,3.941,17.086c-2.179.2-7.675-.56-9.853-.915s-6.586-.966-7.052-.915,1.141,1.831,1.97,2.848,1.349,1.474,1.711,1.373a30.336,30.336,0,0,1,5.7-.356c3.526,0,5.652,1.017,6.378,1.622s.363,4.074.57,7.337a71.3,71.3,0,0,1-.311,13.569,111.175,111.175,0,0,0-1.555,13.933c-.1,4.373,1.555,7.068,2.126,7.119s2.178-1.322,2.9-1.169,0,6.916.415,7.068,1.452-.559,1.763-1.373-.155-3.763-.57-6.712-1.089-7.018-1.659-13.73-1.089-23.188-1.037-24.307.415-1.932,1.141-1.986,12.809-.048,13.69-.048,2.386.254,2.126-.407a20.041,20.041,0,0,0-2.956-3.661m-13.016.254s-2.126-10.577-2.178-15.611,1.038-11.5,3.474-11.7,3.371,8.95,2.8,14.493-4.1,12.814-4.1,12.814" transform="translate(-655.504 -201.35)" fill="#fff"/>
</svg>
